<?xml version="1.0" encoding="UTF-8" standalone="no"?>
<!-- Created with Inkscape (http://www.inkscape.org/) -->

<svg
   xmlns:osb="http://www.openswatchbook.org/uri/2009/osb"
   xmlns:dc="http://purl.org/dc/elements/1.1/"
   xmlns:cc="http://creativecommons.org/ns#"
   xmlns:rdf="http://www.w3.org/1999/02/22-rdf-syntax-ns#"
   xmlns:svg="http://www.w3.org/2000/svg"
   xmlns="http://www.w3.org/2000/svg"
   xmlns:sodipodi="http://sodipodi.sourceforge.net/DTD/sodipodi-0.dtd"
   xmlns:inkscape="http://www.inkscape.org/namespaces/inkscape"
   width="300"
   height="300"
   viewBox="0 0 300 300"
   id="svg2"
   version="1.1"
   inkscape:version="0.91 r13725"
   sodipodi:docname="asian.svg"
   inkscape:export-filename="/home/kender/IdeaProjects/LineTest/resources/tiles/asianTile.png"
   inkscape:export-xdpi="25.656567"
   inkscape:export-ydpi="25.656567">
  <defs
     id="defs4">
    <linearGradient
       id="linearGradient5717"
       osb:paint="solid">
      <stop
         style="stop-color:#000000;stop-opacity:1;"
         offset="0"
         id="stop5719" />
    </linearGradient>
    <filter
       inkscape:collect="always"
       style="color-interpolation-filters:sRGB"
       id="filter6339"
       x="-0.013970802"
       width="1.0279416"
       y="-0.23925034"
       height="1.4785007">
      <feGaussianBlur
         inkscape:collect="always"
         stdDeviation="0.39875056"
         id="feGaussianBlur6341" />
    </filter>
    <filter
       inkscape:collect="always"
       style="color-interpolation-filters:sRGB"
       id="filter7927"
       x="-0.01598893"
       width="1.0319779"
       y="-0.011239506"
       height="1.022479">
      <feGaussianBlur
         inkscape:collect="always"
         stdDeviation="0.18239342"
         id="feGaussianBlur7929" />
    </filter>
    <filter
       inkscape:collect="always"
       style="color-interpolation-filters:sRGB"
       id="filter8171"
       x="-0.036343293"
       width="1.0726866"
       y="-0.020728747"
       height="1.0414575">
      <feGaussianBlur
         inkscape:collect="always"
         stdDeviation="1.4381678"
         id="feGaussianBlur8173" />
    </filter>
    <filter
       inkscape:collect="always"
       style="color-interpolation-filters:sRGB"
       id="filter8259"
       x="-0.041970797"
       width="1.0839416"
       y="-0.023342356"
       height="1.0466847">
      <feGaussianBlur
         inkscape:collect="always"
         stdDeviation="0.61397138"
         id="feGaussianBlur8261" />
    </filter>
    <filter
       inkscape:collect="always"
       style="color-interpolation-filters:sRGB"
       id="filter8375"
       x="-0.027814286"
       width="1.0556286"
       y="-0.025122581"
       height="1.0502452">
      <feGaussianBlur
         inkscape:collect="always"
         stdDeviation="0.649"
         id="feGaussianBlur8377" />
    </filter>
    <filter
       inkscape:collect="always"
       style="color-interpolation-filters:sRGB"
       id="filter8387"
       x="-0.093392157"
       width="1.1867843"
       y="-0.12802489"
       height="1.2560498">
      <feGaussianBlur
         inkscape:collect="always"
         stdDeviation="1.0935459"
         id="feGaussianBlur8389" />
    </filter>
    <filter
       inkscape:collect="always"
       style="color-interpolation-filters:sRGB"
       id="filter8407"
       x="-0.022404265"
       width="1.0448085"
       y="-0.020851477"
       height="1.041703">
      <feGaussianBlur
         inkscape:collect="always"
         stdDeviation="0.43875018"
         id="feGaussianBlur8409" />
    </filter>
    <filter
       inkscape:collect="always"
       style="color-interpolation-filters:sRGB"
       id="filter8435"
       x="-0.44452915"
       width="1.8890583"
       y="-0.034947163"
       height="1.0698943">
      <feGaussianBlur
         inkscape:collect="always"
         stdDeviation="0.34660533"
         id="feGaussianBlur8437" />
    </filter>
    <filter
       inkscape:collect="always"
       style="color-interpolation-filters:sRGB"
       id="filter8471"
       x="-0.048491244"
       width="1.0969825"
       y="-0.047518609"
       height="1.0950372">
      <feGaussianBlur
         inkscape:collect="always"
         stdDeviation="0.32967829"
         id="feGaussianBlur8473" />
    </filter>
    <filter
       inkscape:collect="always"
       style="color-interpolation-filters:sRGB"
       id="filter8483"
       x="-0.03024888"
       width="1.0604978"
       y="-0.029755182"
       height="1.0595104">
      <feGaussianBlur
         inkscape:collect="always"
         stdDeviation="0.22318973"
         id="feGaussianBlur8485" />
    </filter>
    <filter
       inkscape:collect="always"
       style="color-interpolation-filters:sRGB"
       id="filter8535"
       x="-0.02062908"
       width="1.0412582"
       y="-0.022666828"
       height="1.0453337">
      <feGaussianBlur
         inkscape:collect="always"
         stdDeviation="1.5279443"
         id="feGaussianBlur8537" />
    </filter>
    <filter
       inkscape:collect="always"
       style="color-interpolation-filters:sRGB"
       id="filter8559"
       x="-0.26545987"
       width="1.5309197"
       y="-0.015898348"
       height="1.0317967">
      <feGaussianBlur
         inkscape:collect="always"
         stdDeviation="0.46038991"
         id="feGaussianBlur8561" />
    </filter>
    <filter
       inkscape:collect="always"
       style="color-interpolation-filters:sRGB"
       id="filter8575"
       x="-0.035338159"
       width="1.0706763"
       y="-0.034277986"
       height="1.068556">
      <feGaussianBlur
         inkscape:collect="always"
         stdDeviation="0.71412529"
         id="feGaussianBlur8577" />
    </filter>
    <filter
       inkscape:collect="always"
       style="color-interpolation-filters:sRGB"
       id="filter8595"
       x="-0.026588571"
       width="1.0531771"
       y="-0.026214085"
       height="1.0524282">
      <feGaussianBlur
         inkscape:collect="always"
         stdDeviation="0.7755"
         id="feGaussianBlur8597" />
    </filter>
    <filter
       inkscape:collect="always"
       style="color-interpolation-filters:sRGB"
       id="filter8695"
       x="-0.024727797"
       width="1.0494556"
       y="-0.028314769"
       height="1.0566295">
      <feGaussianBlur
         inkscape:collect="always"
         stdDeviation="1.8147746"
         id="feGaussianBlur8697" />
    </filter>
    <filter
       inkscape:collect="always"
       style="color-interpolation-filters:sRGB"
       id="filter8755"
       x="-0.0043894796"
       width="1.008779"
       y="-0.097297101"
       height="1.1945942">
      <feGaussianBlur
         inkscape:collect="always"
         stdDeviation="0.3445939"
         id="feGaussianBlur8757" />
    </filter>
    <filter
       inkscape:collect="always"
       style="color-interpolation-filters:sRGB"
       id="filter8767"
       x="-0.0043903133"
       width="1.0087806"
       y="-0.096889281"
       height="1.1937786">
      <feGaussianBlur
         inkscape:collect="always"
         stdDeviation="0.3460001"
         id="feGaussianBlur8769" />
    </filter>
  </defs>
  <sodipodi:namedview
     id="base"
     pagecolor="#ffffff"
     bordercolor="#666666"
     borderopacity="1.0"
     inkscape:pageopacity="0.0"
     inkscape:pageshadow="2"
     inkscape:zoom="4.7033333"
     inkscape:cx="149.78738"
     inkscape:cy="76.597444"
     inkscape:document-units="px"
     inkscape:current-layer="layer2"
     showgrid="false"
     units="px"
     inkscape:window-width="1920"
     inkscape:window-height="1016"
     inkscape:window-x="0"
     inkscape:window-y="27"
     inkscape:window-maximized="1" />
  <metadata
     id="metadata7">
    <rdf:RDF>
      <cc:Work
         rdf:about="">
        <dc:format>image/svg+xml</dc:format>
        <dc:type
           rdf:resource="http://purl.org/dc/dcmitype/StillImage" />
        <dc:title />
      </cc:Work>
    </rdf:RDF>
  </metadata>
  <g
     inkscape:groupmode="layer"
     id="layer2"
     inkscape:label="Layer 2">
    <rect
       style="fill:#ffffff;fill-opacity:1;stroke:#000000;stroke-width:2.4000001;stroke-linecap:butt;stroke-miterlimit:4.0999999;stroke-dasharray:none;stroke-dashoffset:0;stroke-opacity:1"
       id="rect4223"
       width="301.52951"
       height="300.65549"
       x="-0.87399852"
       y="1.0924985" />
  </g>
  <g
     inkscape:label="Layer 1"
     inkscape:groupmode="layer"
     id="layer1"
     transform="translate(0,-752.36216)">
    <ellipse
       style="fill:#000000;fill-rule:evenodd;stroke:#000000;stroke-width:2.4000001;stroke-linecap:butt;stroke-linejoin:miter;stroke-opacity:1;fill-opacity:0;stroke-miterlimit:4.1;stroke-dasharray:none;filter:url(#filter8595)"
       id="path3344"
       cx="36.5"
       cy="982.36218"
       rx="35"
       ry="35.5" />
    <path
       style="fill:none;fill-rule:evenodd;stroke:#000000;stroke-width:1px;stroke-linecap:butt;stroke-linejoin:miter;stroke-opacity:1;filter:url(#filter6339)"
       d="m 1.5,984.36216 c 18.75,-3.625 30.1585,-0.50906 39.8125,-0.28906 10.264683,0.23392 17.28534,0.49423 20.8125,0.10156 4.224019,-0.47025 5.84375,-0.2969 6.875,-0.3047 1.03125,-0.008 1,-0.008 1,-0.008 l -15.625,-1.875 -18.625,2.125 -17.125,1.875 z"
       id="path4150"
       inkscape:connector-curvature="0"
       sodipodi:nodetypes="csssccccc" />
    <path
       style="fill:none;fill-rule:evenodd;stroke:#000000;stroke-width:1px;stroke-linecap:butt;stroke-linejoin:miter;stroke-opacity:1;filter:url(#filter8559)"
       d="m 34,1017.3622 c 2.357716,-11.0288 3.532439,-22.39551 1.25,-34.75002 4.6133,-25.2224 1.429445,-25.10404 1.25,-34.75002 -2.402109,11.18625 -2.152176,22.90291 -1.25,34.75002 -1.959013,12.35451 -1.942505,23.72122 -1.25,34.75002 z"
       id="path4152"
       inkscape:connector-curvature="0"
       sodipodi:nodetypes="ccccc" />
    <path
       style="fill:none;fill-rule:evenodd;stroke:#000000;stroke-width:1px;stroke-linecap:butt;stroke-linejoin:miter;stroke-opacity:1;filter:url(#filter8575)"
       d="M 58.5,1008.8622 C 52.568679,999.43441 45.120842,990.52141 35.215818,984.34509 25.477475,978.2727 17.448242,968.79501 10,958.86216 20.199826,967.21571 29.294154,975.593 34.696772,984.30895 40.57804,993.7971 49.722044,1000.681 58.5,1008.8622 Z"
       id="path4154"
       inkscape:connector-curvature="0"
       sodipodi:nodetypes="cscsc" />
    <path
       style="fill:none;fill-rule:evenodd;stroke:#000000;stroke-width:1px;stroke-linecap:butt;stroke-linejoin:miter;stroke-opacity:1;filter:url(#filter8407)"
       d="m 60.5,957.36216 c -13.513671,23.86337 -36.931907,28.26054 -47,50.50004 15.666667,-16.89045 31.333333,-35.39927 47,-50.50004 z"
       id="path4156"
       inkscape:connector-curvature="0"
       sodipodi:nodetypes="ccc" />
    <path
       style="fill:none;fill-rule:evenodd;stroke:#000000;stroke-width:1px;stroke-linecap:butt;stroke-linejoin:miter;stroke-opacity:1;filter:url(#filter8375)"
       d="m 28,925.36216 c 0,0 31.5,16.5 38,26 6.5,9.5 18,36 18,36"
       id="path4182"
       inkscape:connector-curvature="0"
       sodipodi:nodetypes="csc" />
    <path
       style="fill:none;fill-rule:evenodd;stroke:#000000;stroke-width:1.02172208px;stroke-linecap:butt;stroke-linejoin:miter;stroke-opacity:1;filter:url(#filter8171)"
       d="m 85.221254,946.10793 c 0,0 4.670765,31.17825 10.89845,37.71563 6.227686,6.53738 23.872796,-15.08625 23.872796,-15.08625 0,0 -19.72101,32.68689 -28.54356,14.0805 C 82.626385,964.21143 74.322804,948.11943 74.322804,948.11943 L 43.70335,927.50155 c -5.556649,-3.74162 -18.683057,-9.55463 -18.683057,-9.55463 47.226616,-61.85364 28.024585,-79.45427 28.024585,-79.45427 l -2.436397,-7.55462 c 0,0 -2.841529,-3.5345 2.867183,-8.06038 5.708712,-4.52588 10.467664,10.58625 10.467664,10.58625 0,0 5.436398,7.55175 1.284607,10.06613 -4.15179,2.51438 -1.89845,11.04888 -1.89845,11.04888 0,0 -12.360502,45.76738 -15.993319,48.78463 -3.632816,3.01725 23.643459,23.71382 32.69535,17.60063 17.126136,-11.56613 5.189738,25.14376 5.189738,25.14376 z"
       id="path4184"
       inkscape:connector-curvature="0"
       sodipodi:nodetypes="cscscscccscscssc" />
    <path
       style="fill:none;fill-rule:evenodd;stroke:#000000;stroke-width:1px;stroke-linecap:butt;stroke-linejoin:miter;stroke-opacity:1;filter:url(#filter8387)"
       d="m 58.5,873.86216 26,-17.5 c 0,0 1.5,2.5 1,3 -0.5,0.5 -28,17.5 -28,17.5"
       id="path4205"
       inkscape:connector-curvature="0" />
    <path
       style="fill:none;fill-rule:evenodd;stroke:#000000;stroke-width:1px;stroke-linecap:butt;stroke-linejoin:miter;stroke-opacity:1;filter:url(#filter8755)"
       d="m 52,891.86216 c 0,0 30.5,-8.5 45,-8.5 14.5,0 21.7981,3.58579 34.2981,5.08579 12.5,1.5 53.79289,-2.5 53.79289,-2.5 l 55.31981,2.93413"
       id="path4207"
       inkscape:connector-curvature="0"
       sodipodi:nodetypes="csscc" />
    <path
       style="fill:none;fill-rule:evenodd;stroke:#000000;stroke-width:0.92108113px;stroke-linecap:butt;stroke-linejoin:miter;stroke-opacity:1;filter:url(#filter8767)"
       d="m 51.925138,893.02639 c 0,0 33.052471,-8.57061 46.864305,-8.57061 13.811837,0 20.781647,4.39264 32.688397,5.72863 11.90675,1.33598 46.20633,-0.666 46.20633,-0.666 l 63.3847,-0.26537"
       id="path4207-9"
       inkscape:connector-curvature="0"
       sodipodi:nodetypes="csscc" />
    <path
       style="fill:none;fill-rule:evenodd;stroke:#000000;stroke-width:1px;stroke-linecap:butt;stroke-linejoin:miter;stroke-opacity:1"
       d="m 86,859.86216 c 31,24.5 44.55546,28.55546 44.55546,28.55546"
       id="path4224"
       inkscape:connector-curvature="0"
       sodipodi:nodetypes="cc" />
    <path
       style="fill:none;fill-rule:evenodd;stroke:#000000;stroke-width:1.18150508px;stroke-linecap:butt;stroke-linejoin:miter;stroke-opacity:1;filter:url(#filter8535)"
       d="m 288.87956,889.38596 -21.97655,-19.44469 c -6.23627,-5.51781 -11.48257,-17.84859 -8.98595,-22.04213 2.49661,-4.19354 -1.99394,-1.09543 -1.99394,-1.09543 -2.71036,8.09006 1.65501,12.33193 -4.49502,14.25988 -7.46135,2.33903 -1.28017,25.12059 -12.97531,29.15653 -12.76174,4.40401 -46.84118,9.1537 -67.91166,2.79568 -15.12478,-4.56394 -32.43747,2.65776 -43.44782,17.79739 -7.23108,9.94301 -2.98811,29.90754 -2.98811,29.90754 l 1.48977,10.90049 -3.98862,30.1268 -10.48578,16.07528 -0.003,9.4826 17.47966,-29.05251 9.98646,-23.76339 11.9845,-3.11912 8.9893,22.24039 c 0,0 6.4927,19.66395 5.49405,24.55641 -0.99865,4.89252 0,9.06512 0,9.06512 l 4.99211,0 0,-7.88644 -0.99939,-11.10978 -3.49415,-14.05156 -6.99201,-25.10917 17.47369,-7.83433 25.97077,-1.04335 c 0,0 8.28566,1.07822 13.48097,1.82543 13.00154,1.86991 6.89143,8.46088 6.47703,8.32494 l 0.49373,17.24376 -1.9917,13.3837 -3.99421,16.02316 -0.99864,10.48384 6.4912,0 0,-12.58061 c 0,0 2.56834,-9.3386 3.99234,-13.22747 2.36505,-6.45881 2.89558,-10.87119 4.98988,-17.45207 1.43506,-4.50938 6.99612,-11.95479 6.99612,-11.95479 l 13.48171,-2.79569 6.00407,13.87093 11.49255,16.86555 4.4973,18.97315 3.99187,-0.6936 -4.4939,-18.87632 -10.49527,-16.66663 -3.00968,-15.51778 3.50272,-20.54012 -8.48961,-19.44468 c 4.12374,3.38209 0.81711,-14.18515 5.4892,-18.43241 1.52731,-1.38844 8.41215,-2.78992 12.36261,-0.31951 4.37611,2.73658 10.11289,5.76472 10.11289,5.76472 z"
       id="path4226"
       inkscape:connector-curvature="0"
       sodipodi:nodetypes="csscsssscccccccccsccccccccscccccccsscccccccccccsscc" />
    <path
       style="fill:none;fill-rule:evenodd;stroke:#000000;stroke-width:1.03703177px;stroke-linecap:butt;stroke-linejoin:miter;stroke-opacity:1;filter:url(#filter8259)"
       d="m 133.43185,902.94444 c -26.09876,15.28241 -27.85201,18.34863 -28.60849,22.61348 -0.75649,4.26486 -2.53244,20.11348 -2.53244,20.11348 l -3.96756,20.39997 7.38797,-14.18647 2.87824,-24.28509 11.28567,-14.55674 8.81634,-4.9662 z"
       id="path4228"
       inkscape:connector-curvature="0"
       sodipodi:nodetypes="csccccccc" />
    <path
       style="fill:#000000;fill-opacity:0"
       d="m 165.63888,253.18758 c -0.18365,-0.57862 -0.1821,-3.22237 0.004,-5.875 0.37706,-5.39063 -0.38716,-9.85662 -3.46386,-20.24232 -1.35938,-4.58869 -10.39284,-28.09903 -11.05727,-28.77744 -0.106,-0.10824 -3.10715,0.54603 -6.66922,1.45394 l -6.47647,1.65073 -4.91006,11.73765 c -4.36687,10.43901 -5.80887,13.23772 -13.03358,25.29606 l -8.12347,13.55842 -0.002,-3.10612 c -0.002,-3.10072 0.008,-3.12005 5.22789,-11.11238 l 5.22943,-8.00625 2.04566,-15.30897 2.04566,-15.30897 -1.27513,-8.82865 c -2.12752,-14.73036 -1.60121,-24.09473 1.67661,-29.83079 1.94078,-3.3963 7.33617,-9.12525 11.50329,-12.21447 9.79013,-7.25772 20.48589,-9.55398 31.79506,-6.82603 7.61192,1.83611 10.37343,2.26395 18.22464,2.82351 15.49742,1.10452 41.75626,-2.03916 51.61936,-6.17982 3.93614,-1.65244 6.24473,-6.92756 7.65837,-17.49935 1.03397,-7.7325 1.58523,-9.30308 3.74763,-10.67726 4.3102,-2.73907 4.22199,-2.57881 4.54115,-8.2505 0.16012,-2.845675 0.33154,-4.386453 0.38093,-3.423953 0.24538,4.782433 3.47618,12.354493 7.18565,16.841073 1.17825,1.42509 7.05916,6.92908 13.06868,12.23107 l 10.92641,9.64 -1.42641,1.1694 c -4.05567,3.3249 -3.25183,3.35256 -9.67641,-0.33298 l -5.75,-3.29856 -4.25,0.009 c -7.58764,0.0166 -9.16128,1.91232 -10.04598,12.10204 -0.62593,7.20931 -0.81202,8.16601 -1.55811,8.01073 -1.35172,-0.28133 -0.70996,1.88456 3.15201,10.63771 l 4.07686,9.24022 -1.7382,10.39545 -1.73819,10.39546 1.59344,7.91847 1.59344,7.91846 5.17725,8.18608 5.17725,8.18608 2.15512,8.92882 c 1.18531,4.91086 2.15511,9.01711 2.15511,9.125 0,0.1079 -0.54076,0.19618 -1.20169,0.19618 -1.26023,0 -1.21636,0.14393 -5.1721,-16.96892 -0.15497,-0.67041 -2.89597,-5.05791 -6.09112,-9.75 -4.50639,-6.61766 -6.46305,-10.04503 -8.72384,-15.28108 -1.60296,-3.7125 -3.07895,-6.92645 -3.27997,-7.14212 -0.20103,-0.21566 -3.49458,0.26981 -7.31901,1.07883 -6.36827,1.34715 -7.06442,1.60381 -8.27146,3.04966 -2.92203,3.50011 -5.8472,9.58613 -7.41927,15.4363 -1.26393,4.70347 -4.5647,15.73115 -7.56579,25.27694 -0.25066,0.79729 -0.45575,4.00354 -0.45575,7.125 l 0,5.67539 -2.25,0 c -1.46885,0 -2.24857,-0.21699 -2.2459,-0.625 0.0196,-2.99328 1.34315,-10.7942 2.81384,-16.58527 3.07308,-12.1007 4.12537,-20.39011 3.80801,-29.9976 -0.2351,-7.11755 -0.15982,-8.41597 0.55087,-9.50061 1.19553,-1.82461 1.05566,-4.3988 -0.30864,-5.6805 -1.92898,-1.81218 -4.48231,-2.54417 -12.86001,-3.68669 -7.64402,-1.04247 -8.82527,-1.07484 -21.42412,-0.58714 l -13.33405,0.51615 -8.86122,3.94833 c -5.51915,2.45919 -8.86642,4.22115 -8.875,4.6717 -0.008,0.39785 1.54882,6.36035 3.45867,13.25 6.52451,23.53676 8.02755,31.30332 8.02755,41.48026 l 0,2.79637 -1.7163,0 c -1.30548,0 -1.79624,-0.25183 -2.05021,-1.05204 z"
       id="path4230"
       inkscape:connector-curvature="0"
       transform="translate(0,752.36216)" />
    <path
       style="fill:#000000;fill-opacity:1"
       d="m 165.63888,253.20085 c -0.18365,-0.57862 -0.18184,-3.22237 0.004,-5.875 0.38556,-5.50276 -0.14662,-8.71011 -3.20231,-19.29994 -1.48208,-5.13628 -10.52268,-28.87134 -11.31688,-29.71115 -0.0979,-0.10347 -3.09,0.53596 -6.64923,1.42095 l -6.47133,1.60908 -4.92388,11.77063 c -4.38253,10.47657 -5.81695,13.26124 -13.04733,25.32905 l -8.12347,13.55842 -0.002,-3.10612 c -0.002,-3.10072 0.008,-3.12004 5.22789,-11.11238 l 5.22943,-8.00625 2.04566,-15.30897 2.04566,-15.30897 -1.27513,-8.82865 c -2.12752,-14.73036 -1.60121,-24.09473 1.67661,-29.83079 1.93644,-3.3887 7.34185,-9.13243 11.43291,-12.1485 6.97641,-5.14324 13.39404,-7.55802 21.11544,-7.94519 4.65808,-0.23357 5.98285,-0.0912 11.75,1.26301 9.56555,2.24608 13.90099,2.71585 25,2.70893 15.05591,-0.009 30.59919,-2.04144 41.17864,-5.38348 3.25752,-1.02905 4.31302,-1.62391 5.55654,-3.1315 1.88887,-2.29001 3.21458,-5.76004 3.95843,-10.36114 0.31121,-1.925 0.91044,-5.63483 1.33162,-8.24406 0.88747,-5.49786 1.41368,-6.48359 4.31572,-8.08445 2.84347,-1.56855 3.38166,-2.83862 3.46265,-8.17149 0.0663,-4.366677 0.0806,-4.418525 0.48212,-1.75 0.89109,5.9224 4.3392,13.10587 8.29298,17.27685 1.05672,1.11477 6.61618,6.16636 12.35436,11.22577 l 10.43306,9.19892 -1.43306,1.1747 c -4.06373,3.33109 -3.25761,3.35836 -9.68306,-0.32768 l -5.75,-3.29856 -4.25,0.005 c -2.74907,0.004 -4.77974,0.2684 -5.75,0.75 -2.48216,1.23206 -3.69193,4.41404 -4.28882,11.28065 -0.6239,7.17716 -0.84149,8.34689 -1.47937,7.95266 -1.55583,-0.96156 -0.63365,2.29055 3.01519,10.63322 l 4.10168,9.37802 -1.72148,10.41366 -1.72148,10.41365 1.58977,7.90027 1.58978,7.90026 5.17725,8.18608 5.17725,8.18608 2.15512,8.92882 c 1.18531,4.91086 2.15511,9.01711 2.15511,9.12501 0,0.10789 -0.54076,0.19617 -1.20169,0.19617 -1.251,0 -1.34337,-0.30331 -5.17737,-17 -0.15787,-0.6875 -2.89995,-5.075 -6.09352,-9.75 -4.52955,-6.63072 -6.44689,-9.98443 -8.71856,-15.25 -1.60165,-3.7125 -3.0685,-6.9184 -3.25968,-7.12421 -0.64612,-0.69559 -13.59781,2.21137 -14.86695,3.33682 -2.04625,1.81459 -6.17065,9.34971 -7.40033,13.52013 -0.65149,2.20949 -1.99111,6.82976 -2.97693,10.26726 -0.98582,3.4375 -2.69519,9.175 -3.7986,12.75 -1.83747,5.95336 -2.0062,6.97306 -2.00628,12.125 l -9e-5,5.625 -2.25,0 c -1.46885,0 -2.24857,-0.21698 -2.2459,-0.625 0.0196,-2.99328 1.34315,-10.79419 2.81384,-16.58527 3.07308,-12.1007 4.12537,-20.39011 3.80801,-29.9976 -0.2351,-7.11755 -0.15982,-8.41597 0.55087,-9.50061 1.19553,-1.82461 1.05566,-4.3988 -0.30864,-5.6805 -1.91463,-1.7987 -4.42752,-2.52613 -12.67651,-3.6696 -7.47862,-1.03668 -8.7288,-1.07219 -21.44167,-0.60901 l -13.5,0.49185 -8.8624,3.96287 c -5.51842,2.46758 -8.86716,4.23581 -8.875,4.68624 -0.007,0.39785 1.55,6.36035 3.45985,13.25 6.52451,23.53676 8.02755,31.30332 8.02755,41.48027 l 0,2.79636 -1.7163,0 c -1.30548,0 -1.79624,-0.25182 -2.05021,-1.05204 z"
       id="path4232"
       inkscape:connector-curvature="0"
       transform="translate(0,752.36216)" />
    <path
       style="fill:#000000;fill-opacity:1;filter:url(#filter8695)"
       d="m 110.90741,250.4074 c -0.001,-3.07752 0.16673,-5.69988 0.37298,-5.82746 0.20625,-0.12759 0.29566,1.65913 0.1987,3.97049 -0.097,2.31135 0.0155,4.19599 0.25,4.18808 0.23446,-0.008 4.07618,-6.13916 8.53715,-13.625 7.0914,-11.89991 8.71708,-15.05605 12.9341,-25.11062 2.65279,-6.325 4.99441,-11.68651 5.20361,-11.91446 0.20919,-0.22795 3.03037,-1.08416 6.26928,-1.90268 4.7039,-1.18876 5.97026,-1.3569 6.29312,-0.83555 0.22231,0.35898 2.36767,5.54082 4.76745,11.51519 2.39979,5.97438 4.44227,10.78349 4.53886,10.6869 0.16945,-0.16945 -3.49709,-10.10501 -6.91131,-18.72819 -0.90999,-2.29834 -1.95956,-4.29585 -2.33238,-4.43891 -0.90238,-0.34628 -12.21307,2.31056 -12.95588,3.04329 -0.32027,0.31593 -2.64629,5.41191 -5.16895,11.32441 -4.88421,11.44745 -7.01944,15.50792 -15.64428,29.75 l -5.4503,9 0.27118,-2.59812 c 0.33098,-3.17114 0.83659,-4.1794 6.21918,-12.40188 l 4.25502,-6.5 2.06738,-15.4677 2.06738,-15.4677 -1.14503,-8.0323 c -0.76914,-5.39547 -1.14599,-10.41232 -1.14797,-15.2823 -0.004,-10.94805 1.23977,-14.42793 7.58232,-21.20701 2.11799,-2.26375 5.55809,-5.29609 7.64466,-6.73854 10.31363,-7.12981 18.95535,-8.57395 33.21663,-5.55093 9.37977,1.98827 17.91179,2.68951 27.81508,2.28611 14.25553,-0.58069 26.5101,-2.33268 35.75,-5.11103 7.53234,-2.26491 9.25606,-5.09535 11.52734,-18.9286 1.31076,-7.98318 1.85902,-9.35008 4.3915,-10.94876 2.61138,-1.6485 3.58116,-3.10621 3.58116,-5.38298 0,-2.92383 0.68402,-2.61684 1.89396,0.85001 1.28993,3.69603 4.01246,8.52088 6.23911,11.05689 0.85268,0.97115 6.37765,6.06425 12.27771,11.31801 l 10.72739,9.55228 -1.94408,1.64484 c -1.06925,0.90466 -2.39769,1.64818 -2.95209,1.65227 -0.5544,0.004 -3.34468,-1.34256 -6.20062,-2.99256 -5.01785,-2.89903 -5.31208,-2.99991 -8.742,-2.99721 -6.6101,0.005 -8.65615,1.23531 -9.97511,5.99721 -0.60597,2.18777 -1.82427,11.21654 -1.82427,13.51961 0,0.26421 -0.36562,0.48039 -0.8125,0.48039 -1.25957,0 -0.62154,2.15427 3.49912,11.81452 l 3.66899,8.60139 -1.71287,10.16704 -1.71286,10.16705 1.60614,8.13978 1.60614,8.13979 5.17631,8.17615 5.17631,8.17615 2.05914,8.60254 c 1.40021,5.84973 1.89586,8.76581 1.54893,9.11275 -0.81761,0.81761 -1.46292,-0.91398 -3.56496,-9.56598 l -1.94364,-8.00007 -5.57974,-8.50899 c -4.77095,-7.2756 -10.53334,-18.02994 -11.73292,-21.89712 -0.22353,-0.72058 -0.74128,-1.12219 -1.44028,-1.11717 -2.27264,0.0163 -13.82757,2.80084 -12.28507,2.96047 0.16844,0.0174 3.07358,-0.53191 6.45587,-1.22077 3.3823,-0.68885 6.19568,-1.1951 6.25196,-1.125 0.0563,0.0701 1.4092,3.16497 3.00648,6.87747 1.59729,3.7125 4.2334,8.7377 5.85802,11.16711 1.62463,2.42942 2.84136,4.52962 2.70386,4.66712 -0.58889,0.5889 -6.40308,-9.07757 -8.773,-14.58567 -1.41951,-3.29921 -2.7802,-6.31553 -3.02374,-6.70293 -0.37578,-0.59774 -1.29096,-0.53539 -6.04542,0.41189 -3.08144,0.61394 -6.05919,1.28516 -6.61722,1.49159 -1.53678,0.56849 -6.73454,9.20937 -7.8226,13.00449 -3.67329,12.81226 -4.76747,16.54026 -6.54408,22.2964 -1.91357,6.19991 -2.0062,6.80587 -2.00628,13.125 l -9e-5,6.625 -3.65091,0 -3.65091,0 0.58594,-5.875 c 0.33124,-3.32122 1.46185,-9.35248 2.60099,-13.875 3.03011,-12.02998 3.74765,-17.86285 3.54018,-28.77812 -0.157,-8.25957 -0.084,-9.31319 0.69971,-10.09688 1.2093,-1.2093 1.09412,-2.70134 -0.31752,-4.11298 -1.51252,-1.51251 -3.30651,-1.98227 -12.55748,-3.28818 -7.08098,-0.99959 -8.23242,-1.02746 -20.60977,-0.4989 l -13.10977,0.55984 -8.38602,3.77007 c -4.61232,2.07354 -8.42659,3.81064 -8.47617,3.86021 -0.0496,0.0496 1.36297,5.26397 3.13898,11.58754 6.81698,24.27214 8.19275,31.38531 8.19275,42.35919 l 0,4.43812 -2.875,-0.14996 -2.875,-0.14995 -0.0215,-7 c -0.0224,-7.30854 -0.19299,-8.35571 -3.05417,-18.75 -1.92674,-6.99963 -10.57044,-28.99151 -11.54125,-29.36405 -0.34465,-0.13225 -3.01444,0.40181 -5.93288,1.18679 l -5.30622,1.42726 -4.9096,11.67726 c -4.43238,10.54222 -5.78785,13.14236 -13.94497,26.75 l -9.03537,15.07274 -0.002,-5.59549 z m 58.92829,2.59549 c 0.0992,-0.825 -0.0913,-4.875 -0.42318,-9 -0.66505,-8.26511 -1.74341,-13.135 -7.53468,-34.02663 -1.90985,-6.88965 -3.47245,-12.76746 -3.47245,-13.06181 0,-0.29434 3.88125,-2.29166 8.625,-4.43849 l 8.625,-3.90331 13,-0.62268 13,-0.62268 -12.99445,0.22307 -12.99445,0.22307 -8.3601,3.78886 c -4.59805,2.08387 -8.64586,4.13318 -8.99513,4.55402 -0.66987,0.80715 -0.85612,-0.008 5.34468,23.38658 3.4152,12.88486 4.70077,19.57193 5.2558,27.33887 0.27774,3.88656 0.40602,7.16543 0.28507,7.28638 -0.12095,0.12095 -0.88442,0.074 -1.69661,-0.10442 l -1.47669,-0.32434 -0.25279,-7.84824 c -0.25884,-8.03596 -0.78451,-10.76916 -3.94373,-20.50519 -1.51076,-4.65586 -1.69652,-3.3925 -0.21767,1.4804 0.69714,2.29709 1.86131,6.65154 2.58705,9.67654 1.16017,4.83576 1.27784,6.08862 0.97429,10.37382 -0.18988,2.6806 -0.19425,5.56128 -0.01,6.40152 0.31602,1.4388 0.45657,1.51889 2.41499,1.37619 1.89574,-0.13814 2.09538,-0.28404 2.25975,-1.65153 z m 51.56969,-4.05039 c 0,-5.83447 0.90407,-10.20937 3.76157,-18.20267 0.44178,-1.23582 1.92486,-6.29694 3.29572,-11.24694 2.48874,-8.98653 3.57488,-11.49151 7.5879,-17.5 1.9401,-2.90483 1.95361,-2.95331 0.42593,-1.52828 -3.18383,2.96987 -6.18017,10.08623 -10.85394,25.77828 l -4.39319,14.75 -0.21105,6.625 c -0.22739,7.13787 -0.19032,7.05959 -2.98794,6.30986 -0.90511,-0.24256 -1.12486,-0.65657 -1.12431,-2.11817 0.001,-2.42048 1.07387,-8.38335 2.93602,-16.31669 1.76884,-7.53578 3.07805,-15.24092 3.01598,-17.75 -0.0238,-0.9625 -0.55887,1.4 -1.189,5.25 -0.63014,3.85 -1.96086,10.1992 -2.95716,14.10933 -1.47432,5.78623 -2.74972,13.54276 -2.79786,17.01567 -0.006,0.4253 0.87004,0.625 2.74133,0.625 l 2.75,0 0,-5.80039 z m 1.94866,-42.11631 c -0.047,-5.41296 0.12763,-8.79158 0.48917,-9.46713 0.30919,-0.57774 0.56217,-1.86347 0.56217,-2.85718 0,-2.07613 -1.60617,-3.89358 -4.17341,-4.72237 -2.471,-0.79773 -9.70876,-1.94839 -14.08903,-2.23987 -2.90328,-0.1932 -1.81224,0.0659 4.01244,0.95277 8.73973,1.33075 11.85376,2.26572 13.00084,3.9034 0.95264,1.36009 0.95921,3.37824 0.0151,4.62651 -0.51649,0.68286 -0.73792,2.30453 -0.747,5.47057 -0.0136,4.7414 0.49898,12.75 0.81604,12.75 0.1027,0 0.15387,-3.78752 0.11372,-8.4167 l 1e-5,0 z"
       id="path4234"
       inkscape:connector-curvature="0"
       transform="translate(0,752.36216)" />
    <path
       style="fill:#000000;fill-opacity:1;"
       d="m 95.058273,234.06489 c -0.92096,-0.77989 -4.66632,-7.69323 -10.90288,-20.125 l -9.5,-18.937 -16.25,-10.91861 C 46.47089,176.06532 40.055402,172.10988 34.247876,169.19006 l -7.907516,-3.97563 2.276105,-3.10577 c 9.009956,-12.29419 17.722181,-26.59468 21.883153,-35.91961 5.293051,-11.86198 7.141182,-19.57829 6.797228,-28.379744 -0.227195,-5.813685 -0.815838,-8.145585 -2.790978,-11.056416 -0.466503,-0.6875 -1.545973,-3.422717 -2.398823,-6.07826 -1.347313,-4.195165 -1.470885,-5.017932 -0.942417,-6.274788 0.703316,-1.672698 3.451785,-4.146952 4.606546,-4.146952 1.414995,0 4.46531,3.819501 6.049692,7.57522 0.85263,2.021129 2.120452,4.781662 2.817382,6.134519 1.719506,3.337847 1.65479,5.231782 -0.240829,7.047901 -1.946117,1.864498 -2.674152,4.629525 -2.253414,8.558317 0.305426,2.852023 0.05769,4.072243 -2.99899,14.771443 -4.390007,15.36619 -9.377153,30.55692 -11.234051,34.21865 -0.821097,1.61917 -1.495753,3.3544 -1.499237,3.85607 -0.0035,0.50166 1.287416,2.2718 2.868666,3.93363 7.070151,7.43045 19.245009,13.90425 26.148845,13.90425 2.37998,0 3.581235,-0.31281 5.84944,-1.52319 3.426375,-1.82842 5.536945,-1.82091 6.520815,0.0232 1.163395,2.18059 0.442615,10.70742 -1.564035,18.50242 -1.01626,3.94775 -1.631855,7.37445 -1.48209,8.25 3.34954,19.58166 7.448335,33.25302 10.93962,36.48863 2.512115,2.32815 6.808292,1.44228 11.886532,-2.45098 3.40078,-2.60723 3.45476,-1.89187 0.0778,1.03085 -5.51335,4.77172 -9.712672,5.93532 -12.599027,3.49108 l 0,-1e-5 z"
       id="path4236"
       inkscape:connector-curvature="0"
       transform="translate(0,752.36216)" />
    <path
       style="fill:#000000;fill-opacity:1;"
       d="m 100.43342,207.50289 c -0.0124,-0.275 0.54035,-3.42407 1.22837,-6.99794 0.68802,-3.57386 1.83042,-11.22386 2.53867,-17 1.46526,-11.94991 2.02371,-13.60716 5.59128,-16.59268 2.874,-2.40512 8.61365,-6.31971 8.61365,-5.87475 0,0.17705 -2.2086,3.16668 -4.90801,6.64363 -2.6994,3.47696 -5.07653,6.60517 -5.2825,6.95159 -0.20598,0.34642 -1.01677,5.99648 -1.80177,12.55569 l -1.42727,11.92584 -2.26492,4.44431 c -1.2457,2.44437 -2.27508,4.21931 -2.2875,3.94431 z"
       id="path4238"
       inkscape:connector-curvature="0"
       transform="translate(0,752.36216)" />
    <path
       style="fill:#000000;fill-opacity:1"
       d=""
       id="path4240"
       inkscape:connector-curvature="0"
       transform="translate(0,752.36216)" />
    <path
       style="fill:#000000;fill-opacity:1"
       d=""
       id="path4242"
       inkscape:connector-curvature="0"
       transform="translate(0,752.36216)" />
    <path
       style="fill:#000000;fill-opacity:1"
       d=""
       id="path4244"
       inkscape:connector-curvature="0"
       transform="translate(0,752.36216)" />
    <path
       style="fill:#000000;fill-opacity:1;filter:url(#filter7927)"
       d="m 102.99734,191.97935 c -0.0147,-0.30611 1.39323,-11.96068 1.83247,-15.16831 0.53909,-3.93683 0.74997,-4.91488 1.29206,-5.9927 1.71873,-3.41724 7.56927,-7.7966 21.94062,-16.42339 1.25835,-0.75536 2.29893,-1.36236 2.3124,-1.34889 0.0135,0.0135 -0.44301,0.52849 -1.01438,1.1445 l -1.03887,1.12001 -4.40177,2.47488 -4.40177,2.47487 -5.66264,7.30317 c -3.11445,4.01674 -5.66986,7.29595 -5.67869,7.28712 -0.041,-0.041 0.0949,-0.26925 0.45087,-0.75751 0.49982,-0.68562 2.58405,-3.41974 4.11012,-5.39169 3.65239,-4.71955 5.67849,-7.45215 5.67849,-7.6586 0,-0.48444 -5.70488,3.39247 -8.72835,5.93159 -2.08683,1.75253 -2.98938,3.09224 -3.68436,5.46891 -0.60247,2.06031 -0.96269,4.23972 -1.81762,10.99686 -0.54583,4.31408 -1.17453,8.83088 -1.18858,8.53918 z"
       id="path4246"
       inkscape:connector-curvature="0"
       transform="translate(0,752.36216)" />
    <path
       style="fill:#000000;fill-opacity:1"
       d="m 57.848525,123.54355 c 0.02839,-0.0968 0.156018,-0.53405 0.283629,-0.97158 0.12761,-0.43752 0.249635,-0.84925 0.271166,-0.91495 0.02827,-0.0863 0.08425,-0.0638 0.20149,0.081 0.09401,0.11609 0.214643,0.17748 0.286595,0.14583 0.06834,-0.0301 5.812042,-3.88957 12.763786,-8.57669 l 12.639534,-8.52203 0.33031,0.67328 c 0.592124,1.20696 0.673875,1.04849 -1.141375,2.2125 -2.252005,1.44407 -10.256358,6.44158 -18.413401,11.4964 -3.86478,2.39496 -7.082329,4.39898 -7.150109,4.45338 -0.0992,0.0796 -0.11317,0.0646 -0.07162,-0.0772 z"
       id="path4248"
       inkscape:connector-curvature="0"
       transform="translate(0,752.36216)" />
    <path
       style="fill:#000000;fill-opacity:1"
       d="m 12.847675,232.46423 c -3.1386356,-0.30085 -5.7571786,-0.59756 -5.818984,-0.65937 -0.1439268,-0.14392 1.6119319,-0.346 6.150595,-0.70787 5.032597,-0.40124 18.938522,0.082 17,0.59071 -0.34375,0.0902 -2.875,0.39536 -5.625,0.67811 -2.75,0.28275 -5.225,0.54363 -5.5,0.57974 -0.275,0.0361 -3.067975,-0.18048 -6.206611,-0.48132 z"
       id="path4250"
       inkscape:connector-curvature="0"
       transform="translate(0,752.36216)" />
    <path
       style="fill:#000000;fill-opacity:1;filter:url(#filter8435)"
       d="m 35.308536,219.79205 c -0.23652,-6.42771 0.09425,-14.05063 0.793838,-18.29492 0.150428,-0.91263 0.19227,-0.8034 0.478855,1.25 0.544912,3.90432 0.6561,7.13824 0.369604,10.75 -0.238901,3.01175 -1.155436,10.50022 -1.376917,11.25 -0.04062,0.1375 -0.160039,-2.09229 -0.26538,-4.95508 z"
       id="path4252"
       inkscape:connector-curvature="0"
       transform="translate(0,752.36216)" />
    <path
       style="fill:#000000;fill-opacity:1;filter:url(#filter8471)"
       d="m 29.304286,226.94907 c -4.143055,-3.42553 -14.53342,-14.50186 -14.053731,-14.98155 0.162295,-0.16229 3.77465,3.02683 7.375653,6.51151 3.596088,3.47993 9.454236,10.15978 8.886845,10.13338 -0.114822,-0.005 -1.108767,-0.75384 -2.208767,-1.66334 z"
       id="path4254"
       inkscape:connector-curvature="0"
       transform="translate(0,752.36216)" />
    <path
       style="fill:#000000;fill-opacity:1"
       d="m 47.679286,231.16 c 0,-0.11666 1.516849,-0.35852 3.370775,-0.53747 2.750544,-0.26548 3.935062,-0.26651 6.4375,-0.006 1.686699,0.17588 3.291725,0.41061 3.566725,0.52162 0.275,0.11101 -2.621875,0.20896 -6.4375,0.21768 -3.815625,0.009 -6.9375,-0.0796 -6.9375,-0.19628 z"
       id="path4256"
       inkscape:connector-curvature="0"
       transform="translate(0,752.36216)" />
    <path
       style="fill:#000000;fill-opacity:1"
       d="m 45.214734,221.58235 c 3.472963,-3.80575 10.523877,-10.98423 10.657643,-10.85047 0.150407,0.15041 -2.162586,3.04251 -4.509506,5.63857 -1.841996,2.03753 -7.675067,7.48757 -8.023137,7.4963 -0.118004,0.003 0.725746,-1.02502 1.875,-2.2844 z"
       id="path4258"
       inkscape:connector-curvature="0"
       transform="translate(0,752.36216)" />
    <path
       style="fill:#000000;fill-opacity:1"
       d="m 34.362063,258.53918 c -0.26114,-0.65429 -0.221733,-9.55231 0.06385,-14.41705 0.248052,-4.22543 0.757862,-9.57885 0.898781,-9.43793 0.04333,0.0433 0.211001,2.07603 0.372603,4.51712 0.227112,3.43065 0.225315,5.50062 -0.0079,9.11708 -0.353433,5.48026 -1.057009,10.89803 -1.327316,10.22078 z"
       id="path4260"
       inkscape:connector-curvature="0"
       transform="translate(0,752.36216)" />
    <path
       style="fill:#000000;fill-opacity:1;filter:url(#filter8483)"
       d="m 49.797887,247.7724 c -2.608981,-2.37647 -5.759725,-5.37935 -7.001655,-6.67306 -2.347805,-2.44571 -5.866946,-6.68449 -5.866946,-7.0667 0,-0.12092 0.421875,0.0936 0.9375,0.4766 5.603538,4.16279 10.792441,9.36083 15.290734,15.31766 0.863798,1.14388 1.528563,2.12176 1.477255,2.17307 -0.05131,0.0513 -2.227908,-1.8511 -4.836888,-4.22757 z"
       id="path4262"
       inkscape:connector-curvature="0"
       transform="translate(0,752.36216)" />
    <path
       style="fill:#000000;fill-opacity:1"
       d="m 16.929286,250.46637 c 0,-0.23892 2.194887,-3.30282 3.470275,-4.84424 2.484501,-3.00275 8.627862,-8.9852 8.923394,-8.68967 0.123111,0.12311 -12.045236,13.68967 -12.278771,13.68967 -0.06319,0 -0.114898,-0.0701 -0.114898,-0.15576 z"
       id="path4264"
       inkscape:connector-curvature="0"
       transform="translate(0,752.36216)" />
    <path
       style="fill:#000000;fill-opacity:0;stroke:#000000;stroke-width:0.21213204;stroke-linecap:butt;stroke-miterlimit:4.0999999;stroke-dasharray:none;stroke-dashoffset:0;stroke-opacity:1"
       d="m 58.805565,253.49452 c -0.190172,-0.08 -0.381355,-0.28627 -0.632228,-0.68195 -0.403562,-0.6365 -1.840879,-2.67766 -2.758228,-3.91702 -4.193377,-5.66531 -8.715735,-10.44275 -13.491718,-14.25271 -2.113398,-1.68592 -1.962544,-1.54784 -1.811961,-1.65853 0.0926,-0.0681 0.758894,-0.0818 2.209708,-0.0455 13.371654,0.33445 18.100988,0.32293 21.036427,-0.0512 0.364601,-0.0465 1.677168,-0.10813 2.916815,-0.13702 2.779614,-0.0648 2.586086,-0.16745 2.417795,1.28283 -0.672028,5.79133 -3.072085,11.66593 -6.649677,16.27637 -1.162332,1.49789 -2.82755,3.29551 -3.024305,3.26476 -0.01972,-0.003 -0.115401,-0.0391 -0.212628,-0.08 z"
       id="path4208"
       inkscape:connector-curvature="0"
       transform="translate(0,752.36216)" />
    <path
       style="fill:#000000;fill-opacity:0;stroke:#000000;stroke-width:0.21213204;stroke-linecap:butt;stroke-miterlimit:4.0999999;stroke-dasharray:none;stroke-dashoffset:0;stroke-opacity:1"
       d="m 38.962381,230.04882 c 0,-0.0687 0.626453,-0.61917 1.392117,-1.22319 4.146728,-3.27131 7.529949,-6.23931 10.409182,-9.13168 3.466795,-3.48262 5.732972,-6.21425 8.395438,-10.11978 0.608888,-0.89317 1.129345,-1.56908 1.221916,-1.58689 0.21518,-0.0414 0.403407,0.13689 1.215115,1.15095 4.453023,5.56314 6.995456,12.30135 7.300478,19.34845 0.06354,1.46793 0.03005,1.58216 -0.463804,1.58216 -0.268775,0 -2.339333,-0.24113 -9.512297,-1.10774 -2.206976,-0.26664 -2.798834,-0.30648 -4.553543,-0.30648 -2.1126,0 -2.138111,0.002 -13.276733,1.27829 -2.246145,0.25728 -2.127869,0.25084 -2.127869,0.11591 z"
       id="path4210"
       inkscape:connector-curvature="0"
       transform="translate(0,752.36216)" />
    <path
       style="fill:#000000;fill-opacity:0;stroke:#000000;stroke-width:0.21213204;stroke-linecap:butt;stroke-miterlimit:4.0999999;stroke-dasharray:none;stroke-dashoffset:0;stroke-opacity:1"
       d="m 37.194614,227.03284 c 0,-0.17464 0.117581,-1.02471 0.261291,-1.88904 0.318828,-1.91756 0.742078,-4.91235 0.975095,-6.8995 0.404838,-3.45241 0.442373,-4.1775 0.442688,-8.55162 3.25e-4,-4.52723 0.003,-4.48464 -0.52596,-8.30586 -0.449163,-3.24464 -0.4929,-3.80436 -0.318116,-4.07111 0.146585,-0.22372 0.167741,-0.22811 0.828859,-0.17222 6.591742,0.55727 12.346286,2.79306 17.47222,6.7884 1.32071,1.02941 1.671714,1.39758 1.588506,1.66621 -0.03546,0.11448 -1.682126,1.8389 -3.659261,3.83206 -4.90834,4.94811 -8.875911,9.12347 -14.488238,15.24699 -1.225272,1.33687 -2.306363,2.48525 -2.402425,2.55194 -0.164044,0.1139 -0.174659,0.10197 -0.174659,-0.19625 z"
       id="path4212"
       inkscape:connector-curvature="0"
       transform="translate(0,752.36216)" />
    <path
       style="fill:#000000;fill-opacity:0;stroke:#000000;stroke-width:0.21213204;stroke-linecap:butt;stroke-miterlimit:4.0999999;stroke-dasharray:none;stroke-dashoffset:0;stroke-opacity:1"
       d="m 33.376848,226.86564 c -0.0779,-0.0613 -0.624306,-0.71936 -1.214228,-1.46246 -3.809315,-4.79844 -9.172975,-10.1507 -16.289508,-16.25487 -2.049802,-1.75821 -2.278186,-1.98687 -2.278186,-2.28089 0,-0.1952 0.739184,-0.96421 1.848873,-1.92347 4.428177,-3.82792 9.885492,-6.42944 15.519437,-7.39816 1.569057,-0.26979 3.411625,-0.44738 3.599347,-0.34692 0.194176,0.10392 0.202122,0.44605 0.03112,1.33982 -0.186407,0.97425 -0.46617,2.98994 -0.665191,4.79267 -0.6858,6.21201 -0.798882,13.14243 -0.349888,21.44371 0.107141,1.9809 0.07552,2.30858 -0.201773,2.09057 z"
       id="path4214"
       inkscape:connector-curvature="0"
       transform="translate(0,752.36216)" />
    <path
       style="fill:#000000;fill-opacity:0;stroke:#000000;stroke-width:0.21213204;stroke-linecap:butt;stroke-miterlimit:4.0999999;stroke-dasharray:none;stroke-dashoffset:0;stroke-opacity:1"
       d="m 4.1858943,230.10473 c -0.1452093,-0.14521 -0.1544295,-0.27408 -0.100281,-1.40163 0.3008194,-6.26405 2.0886086,-11.86098 5.4221622,-16.97485 0.6434555,-0.98709 0.8395835,-1.19324 1.1352655,-1.19324 0.228344,0 0.132261,-0.10955 2.403048,2.74004 4.716952,5.91927 9.592329,11.08421 14.005963,14.8378 0.71705,0.60982 1.303728,1.14645 1.303728,1.19252 0,0.0886 -1.387842,0.0485 -4.419418,-0.12768 -2.013528,-0.11699 -9.138311,-0.0584 -10.960154,0.0901 -2.770531,0.22588 -5.4339989,0.53044 -8.3147735,0.95076 -0.2313051,0.0337 -0.3583499,0.003 -0.4755402,-0.11386 z"
       id="path4216"
       inkscape:connector-curvature="0"
       transform="translate(0,752.36216)" />
    <path
       style="fill:#000000;fill-opacity:0;stroke:#000000;stroke-width:0.21213204;stroke-linecap:butt;stroke-miterlimit:4.0999999;stroke-dasharray:none;stroke-dashoffset:0;stroke-opacity:1"
       d="M 12.455847,252.09963 C 9.0209688,248.30916 6.4276467,243.437 5.1181502,238.31406 c -0.370449,-1.44925 -0.8040004,-3.77239 -0.8040004,-4.30814 0,-0.52556 0.054791,-0.53355 2.2328294,-0.32572 12.8168098,1.22298 11.7309208,1.19255 18.0081018,0.50465 4.027349,-0.44135 4.88776,-0.5243 5.192815,-0.50066 0.270424,0.021 0.01494,0.29945 -1.198897,1.30683 -6.564997,5.44839 -10.974332,10.4516 -14.240444,16.15844 -0.740395,1.29368 -0.984007,1.63518 -1.166465,1.63518 -0.03602,0 -0.344833,-0.30825 -0.686243,-0.68501 z"
       id="path4218"
       inkscape:connector-curvature="0"
       transform="translate(0,752.36216)" />
    <path
       style="fill:#000000;fill-opacity:0;stroke:#000000;stroke-width:0.21213204;stroke-linecap:butt;stroke-miterlimit:4.0999999;stroke-dasharray:none;stroke-dashoffset:0;stroke-opacity:1"
       d="m 31.00743,262.46337 c -4.702481,-0.81704 -9.258883,-2.72549 -13.142477,-5.50471 -1.489972,-1.06627 -2.060318,-1.57232 -2.060318,-1.82805 0,-0.26123 0.04354,-0.31171 4.206873,-4.87675 1.900565,-2.08394 5.552955,-6.11581 8.116422,-8.9597 2.630252,-2.91799 4.725282,-5.17072 4.808739,-5.17072 0.174849,0 0.172808,0.1579 -0.0297,2.2981 -0.431853,4.5639 -0.430083,4.50756 -0.454224,14.45149 -0.01269,5.22596 -0.02488,9.57135 -0.02708,9.65643 -0.0049,0.18696 0.05391,0.1897 -1.418227,-0.0661 z"
       id="path4220"
       inkscape:connector-curvature="0"
       transform="translate(0,752.36216)" />
    <path
       style="fill:#000000;fill-opacity:0;stroke:#000000;stroke-width:0.21213204;stroke-linecap:butt;stroke-miterlimit:4.0999999;stroke-dasharray:none;stroke-dashoffset:0;stroke-opacity:1"
       d="m 36.020425,262.82315 c -0.191223,-0.19123 -0.189776,-0.28346 0.02187,-1.39406 1.232234,-6.46604 1.865662,-13.67043 1.716504,-19.52292 -0.03802,-1.49171 -0.02812,-2.40572 0.02711,-2.50443 0.07423,-0.13264 0.252962,0.0303 1.219506,1.11156 1.427488,1.59698 5.527586,5.69371 7.558358,7.55215 0.850738,0.77855 3.098011,2.80127 4.993941,4.49493 1.89593,1.69366 3.553613,3.19196 3.683739,3.32957 0.525276,0.55545 0.408938,0.7506 -1.010346,1.69484 -4.926977,3.27789 -10.543293,5.077 -16.641794,5.33097 -1.269831,0.0529 -1.433031,0.0433 -1.568894,-0.0926 z"
       id="path4222"
       inkscape:connector-curvature="0"
       transform="translate(0,752.36216)"
       inkscape:export-filename="/home/kender/IdeaProjects/LineTest/resources/tiles/path4222.png"
       inkscape:export-xdpi="25.656567"
       inkscape:export-ydpi="25.656567" />
  </g>
</svg>
